HIERARCHY
ROOT pelvis
{
  OFFSET 0 100 0
  CHANNELS 6 Xposition Yposition Zposition Zrotation Xrotation Yrotation
  JOINT pelvis_right_femur
  {
    OFFSET -10.78128 -3.44521 -0.5502486
    CHANNELS 3 Zrotation Xrotation Yrotation
    JOINT right_femur_tibia
    {
      OFFSET -0.8047443 -44.0398 -0.1307829
      CHANNELS 3 Zrotation Xrotation Yrotation
      JOINT right_tibia_foot
      {
        OFFSET 3.006224 -47.83518 -5
        CHANNELS 3 Zrotation Xrotation Yrotation
        End Site
        {
          OFFSET 0 -5 15
        }
      }
    }
  }
  JOINT pelvis_left_femur
  {
    OFFSET 10.78128 -3.44521 -0.5502486
    CHANNELS 3 Zrotation Xrotation Yrotation
    JOINT left_femur_tibia
    {
      OFFSET 0.8047443 -44.0398 -0.1307829
      CHANNELS 3 Zrotation Xrotation Yrotation
      JOINT left_tibia_foot
      {
        OFFSET -4.370144 -48.10324 -4.275266
        CHANNELS 3 Zrotation Xrotation Yrotation
        End Site
        {
          OFFSET 0 -5 15
        }
      }
    }
  }
  JOINT pelvis_spine1
  {
    OFFSET 0 6.468898 -3.129235
    CHANNELS 3 Zrotation Xrotation Yrotation
    JOINT spine1
    {
      OFFSET 0 23.15396 4.99043
      CHANNELS 3 Zrotation Xrotation Yrotation
      JOINT spine2
      {
        OFFSET 0 20.79997 -5.064912
        CHANNELS 3 Zrotation Xrotation Yrotation
        JOINT neck
        {
          OFFSET 0 14.38658 9.616178
          CHANNELS 3 Zrotation Xrotation Yrotation
          End Site
          {
            OFFSET 0 20 0
          }
        }
      }
      JOINT right_manubrium
      {
        OFFSET -5.722621 16.35077 3.967754
        CHANNELS 3 Zrotation Xrotation Yrotation
        JOINT right_clavicle
        {
          OFFSET -13.16364 1.694482 -4.693211
          CHANNELS 3 Zrotation Xrotation Yrotation
          JOINT right_humerus
          {
            OFFSET -28.5034 -0.3100689 -2.792744
            CHANNELS 3 Zrotation Xrotation Yrotation
            JOINT right_radius
            {
              OFFSET -25.15693 0.02248979 -1.271978
              CHANNELS 3 Zrotation Xrotation Yrotation
              End Site
              {
                OFFSET -15 0 0
              }
            }
          }
        }
      }
      JOINT left_manubrium
      {
        OFFSET 5.722621 16.35077 3.967754
        CHANNELS 3 Zrotation Xrotation Yrotation
        JOINT left_clavicle
        {
          OFFSET 13.16364 1.694482 -4.693211
          CHANNELS 3 Zrotation Xrotation Yrotation
          JOINT left_humerus
          {
            OFFSET 29.39168 -1.063119 -2.237045
            CHANNELS 3 Zrotation Xrotation Yrotation
            JOINT left_radius
            {
              OFFSET 24.59957 -0.9528479 0.9047498
              CHANNELS 3 Zrotation Xrotation Yrotation
              End Site
              {
                OFFSET 15 -0 -0
              }
            }
          }
        }
      }
    }
  }
}
MOTION
Frames: 7
Frame Time: 0.0416666666667
-671.7217 99.10212 2860.557 -1.6161 -4.875593 -33.47775 1.824182 -23.41093 -3.780454 -0 6.92289 -0 -4.841343 2.845862 -4.703607 -5.851275 16.98628 -7.046576 -0 24.36287 -0 -1.693135 -18.65016 12.95985 -0.3769424 -1.475825 5.438709 -0.125573 13.92323 -7.223831 0.5381432 21.503 6.288273 5.539603 -18.58187 4.556343 0.4203999 -19.69358 12.05632 91.11754 26.23204 -20.02117 -0 0 12.90752 -22.00885 9.794513 6.50158 8.683129 -27.37992 -6.741048 -86.8669 8.225787 13.69103 0 0 -21.51323 18.84328 12.7083 -12.28497
-676.0582 98.81242 2866.173 -2.398437 -4.861721 -33.48641 3.600546 -21.18326 -2.59605 -0 8.641443 -0 -5.310586 3.298509 -4.98269 -5.088952 16.64169 -6.54654 -0 32.3093 -0 -2.63678 -15.90047 12.82442 -0.3440056 -1.47621 5.349717 -0.1068282 13.93095 -7.246054 0.5504265 21.56135 6.289451 5.474185 -18.5971 4.605967 0.2872604 -19.63899 12.05922 91.31307 25.83195 -20.18758 -0 0 12.62613 -22.13687 9.819536 6.602681 8.624129 -27.39118 -6.8552 -86.75228 8.400018 13.49184 0 0 -21.85423 18.67213 12.79512 -12.06416
-680.4711 99.24846 2871.782 -3.530619 -5.126237 -33.86003 5.376144 -17.87316 -1.04754 -0 11.45855 -0 -5.700718 2.862628 -5.292541 -4.152452 14.7422 -6.023267 -0 41.50788 -0 -3.338485 -12.45201 13.16006 -0.2859442 -1.449517 5.362978 -0.1005273 14.02982 -7.170887 0.579471 21.69282 6.145644 5.290912 -18.53082 4.595451 0.1265077 -19.81396 12.1103 91.35952 25.2884 -19.98276 -0 0 12.74435 -22.293 9.851079 6.825644 8.304161 -27.21037 -7.058208 -86.87998 8.701704 13.93386 0 0 -21.4276 18.20762 12.93316 -11.4545
-684.7633 100.3043 2877.215 -4.643625 -5.690421 -34.63776 6.615308 -13.59058 0.456452 -0 13.69827 -0 -5.837158 1.481593 -5.517956 -3.305954 11.01151 -5.52306 -0 50.52108 -0 -3.764326 -9.193542 13.95964 -0.1937517 -1.41841 5.480078 -0.1058875 14.22211 -7.01567 0.6254803 21.86285 5.865852 5.006337 -18.40006 4.525052 -0.05873677 -20.23251 12.20808 91.27228 24.62835 -19.43876 -0 0 13.28243 -22.47117 9.922723 7.152143 7.771444 -26.88121 -7.324169 -87.26196 9.060038 15.00666 0 0 -20.28642 17.52491 13.12638 -10.55666
-688.7986 101.6833 2882.347 -5.392938 -6.462106 -35.71799 6.995164 -8.584798 1.581065 -0 14.34868 -0 -5.717337 -0.5636973 -5.507261 -2.699082 5.555826 -5.138596 -0 57.39515 -0 -4.025361 -6.966102 15.0938 -0.06374146 -1.414643 5.691253 -0.1142342 14.49779 -6.810497 0.6855826 22.02267 5.471679 4.639074 -18.23039 4.403616 -0.264043 -20.89902 12.34447 91.07362 23.86426 -18.61615 -0 0 14.22638 -22.66557 10.08594 7.577663 7.088204 -26.45797 -7.620242 -87.88729 9.415752 16.65682 0 0 -18.5701 16.67634 13.36888 -9.440871
-692.5498 103.0036 2887.146 -5.6395 -7.220898 -36.89638 6.613962 -3.282418 2.212111 -0 13.48877 -0 -5.499617 -2.87332 -5.164559 -2.246676 -1.037797 -4.904249 -0 60.28251 -0 -4.248539 -6.095255 16.34835 0.1007506 -1.47004 5.976175 -0.1113006 14.83508 -6.591498 0.7547236 22.12021 4.994817 4.207256 -18.05235 4.248519 -0.4817587 -21.80136 12.5055 90.7877 22.99782 -17.59273 -0 0 15.52726 -22.86956 10.39597 8.109891 6.319288 -25.99228 -7.911625 -88.72123 9.735883 18.78884 0 0 -16.47672 15.68314 13.64194 -8.135357
-696.0726 103.9336 2891.678 -5.503834 -7.68327 -37.98724 5.921798 1.810295 2.457477 -0 11.97261 -0 -5.336875 -5.208764 -4.538461 -1.666137 -7.871695 -4.693602 -0 58.22628 -0 -4.477724 -6.224444 17.49625 0.2886262 -1.60705 6.308217 -0.08371319 15.20193 -6.390805 0.8267611 22.11081 4.476165 3.730369 -17.89856 4.08466 -0.699438 -22.90582 12.67312 90.43299 22.03347 -16.44538 -0 0 17.10953 -23.0794 10.89402 8.764593 5.527146 -25.52166 -8.162224 -89.7104 10.01753 21.26986 0 0 -14.22975 14.54418 13.91043 -6.637357
